# xmcd
#
# Track frame offsets: 
#        150
#        16333
#        50854
#        72638
#        92407
#        119653
#        139663
#        173823
#        199206
#        225255
#        243598
#
# Disc length: 3682 seconds
#
# Revision: 0
# Processed by: cddbd v1.5.2PL0 Copyright (c) Steve Scherf et al.
# Submitted via: ExactAudioCopy v1.0b6
#
DISCID=9b0e600b
DTITLE=麗蘭 - 磔磔2017盤 Come on! Let's go!
DYEAR=2018
DGENRE=Blues
TTITLE0=Come on! Let's go!
TTITLE1=Get Back
TTITLE2=何はなくてもR&R
TTITLE3=しっくり
TTITLE4=GO! GO! 放課後
TTITLE5=Do Me Baby
TTITLE6=Yes We Can 2017
TTITLE7=GIBSON
TTITLE8=安らぎCafé
TTITLE9=陽気にやろうぜ
TTITLE10=ミュージック
EXTD=
EXTT0=
EXTT1=
EXTT2=
EXTT3=
EXTT4=
EXTT5=
EXTT6=
EXTT7=
EXTT8=
EXTT9=
EXTT10=
PLAYORDER=
